<?xml version="1.0" encoding="utf-8"?>
<!DOCTYPE svg PUBLIC "-//W3C//DTD SVG 20010904//EN" "http://www.w3.org/TR/2001/REC-SVG-20010904/DTD/svg10.dtd">
<svg version="1.0" xmlns="http://www.w3.org/2000/svg" width="239px" height="21px" viewBox="0 0 239 21" preserveAspectRatio="xMidYMid meet">
 <g fill="none">
  <path d="M0 10.5 l0 -10.5 119.5 0 119.5 0 0 10.5 0 10.5 -119.5 0 -119.5 0 0 -10.5z"/>
 </g>
 <g fill="none">
  <path fill="#75ae4e" d="M86.1 15.3 c-0.9 -1.6 -1.2 -1.6 -2.1 -0.3 -0.8 1.3 -1.2 1.2 -2.6 -0.8 -1.2 -1.8 -1.9 -2.1 -3 -1.1 -1.1 0.9 -1.7 0.9 -2.8 0 -2.3 -1.9 -17.3 -0.9 -18.9 1.3 -1.2 1.6 -1.4 1.5 -3.5 -0.9 -1.9 -2.2 -3.1 -2.6 -6.5 -2.4 -2.3 0.1 -5.8 0.1 -7.7 0 -3.3 -0.2 -3.3 -0.3 -1.2 -1.2 1.3 -0.5 5.1 -0.8 8.4 -0.8 5.2 0.1 6.3 -0.1 7.8 -2.1 1 -1.3 2 -1.8 2.3 -1.3 1.4 2.2 16.2 3.9 18.4 2.1 0.7 -0.6 2.4 -0.8 3.7 -0.4 1.5 0.4 2.8 0 3.6 -0.9 1 -1.2 1.6 -1.3 2.6 -0.4 1.1 0.9 1.4 0.8 1.4 -0.5 0 -0.9 0.4 -1.6 0.9 -1.6 0.8 0 2.1 6.9 2.1 11.1 0 2.4 -1.6 2.4 -2.9 0.2z"/>
  <path fill="#75ae4e" d="M183.6 15.1 c-0.8 -2.3 -1 -2.3 -2.1 -0.7 -1.2 1.6 -1.4 1.6 -2.8 -0.5 -0.9 -1.1 -1.9 -1.9 -2.4 -1.6 -0.5 0.3 -2 -0.3 -3.3 -1.4 -2.4 -1.9 -2.5 -2 -0.6 -3.4 1.5 -1.1 2.3 -1.2 3.3 -0.3 1 0.8 1.8 0.7 3.2 -0.6 1.5 -1.3 2.1 -1.4 2.7 -0.5 0.5 0.9 1.3 0 2.5 -2.7 l1.6 -3.9 1.7 4.2 c2 4.6 5.5 6.5 6.3 3.2 0.7 -2.4 1.1 -2.4 4 0.3 1.7 1.6 3.4 2.1 6.9 2 2.5 -0.1 5.5 -0.7 6.6 -1.3 1.4 -0.8 2.8 -0.7 5.1 0.4 1.8 0.8 4.1 1.7 5.2 2 1.5 0.3 1.3 0.5 -0.8 0.6 -1.6 0 -3.7 0.6 -4.8 1.1 -1.3 0.7 -3.8 0.7 -8.3 -0.1 -6 -1.1 -6.5 -1.1 -9.6 1.1 -2.9 2.1 -3.3 2.2 -4.2 0.7 -1.2 -2.2 -2.4 -2.1 -4.8 0.3 l-2 2 -0.1 -5.2 -0.2 -5.3 -1.1 6 c-1.1 5.1 -1.3 5.6 -2 3.6z"/>
  <path fill="#75ae4e" d="M150.6 13.6 c-1.6 -2.5 -1.7 -2.5 -16.3 -2.3 -8.2 0.1 -15.3 0.6 -16 1 -1.4 0.9 -15.3 -1.4 -15.3 -2.5 0 -0.4 2.2 -0.8 4.8 -0.8 2.6 0 5.3 -0.5 6 -1.2 0.9 -0.9 1.8 -0.9 3.8 0.1 1.7 0.7 8 1.2 17.2 1.2 14.1 0 14.7 -0.1 16.5 -2.3 1.2 -1.6 2 -1.9 2.4 -1 0.2 0.6 1.1 1.2 1.9 1.2 0.9 0 1.4 1.1 1.4 3 0 2 -0.5 3 -1.5 3 -0.8 0 -1.5 0.7 -1.5 1.5 0 2.2 -1.6 1.8 -3.4 -0.9z"/>
  <path fill="#75ae4e" d="M158.2 10.6 c0.3 -2.1 0.8 -2.2 8.1 -1.8 1.7 0.1 2.7 0.8 2.7 1.7 0 0.9 -1 1.5 -2.7 1.6 -1.6 0.1 -4.1 0.2 -5.6 0.3 -2.3 0.2 -2.7 -0.2 -2.5 -1.8z"/>
 
  <path fill="#8dd55e" d="M86.8 17 c-1.3 -4 -1.8 -4.5 -4.8 -4.8 -1.8 -0.2 -3.7 0.1 -4.3 0.7 -0.6 0.6 -1.7 0.5 -3.3 -0.6 -1.3 -0.8 -2.8 -1.2 -3.4 -0.8 -0.5 0.3 -1 -0.1 -1 -0.9 0 -0.9 0.8 -1.6 1.8 -1.6 1 0 2.3 -0.5 3 -1.2 0.9 -0.9 1.7 -0.9 3.5 0.1 3.8 2 6 1 8.3 -3.8 l2.1 -4.4 1.6 4.1 c1.5 3.8 2.6 4.7 5 4.3 0.4 0 0.7 0.8 0.7 1.9 0 1.3 -0.9 2.2 -2.5 2.6 -1.4 0.3 -2.5 1.1 -2.5 1.8 -0.1 0.6 -0.7 2.5 -1.4 4.1 l-1.3 3 -1.5 -4.5z"/>
  <path fill="#8dd55e" d="M172.5 13.1 c-0.3 -0.6 -1.7 -1.1 -3 -1.1 -3.2 0 -5.6 -1 -4.9 -2.1 0.3 -0.5 1.8 -0.9 3.3 -0.9 1.5 0 3.2 -0.5 3.8 -1.1 0.9 -0.9 2 -0.9 4.2 0.1 3.4 1.4 4 3.4 1.4 4.4 -1 0.3 -2.3 0.8 -3 1.2 -0.6 0.3 -1.4 0 -1.8 -0.5z"/>
  <path fill="#8dd55e" d="M149.3 11.2 c-0.9 -2.2 1.6 -3.5 7 -3.4 4.1 0.1 5.7 0.5 5.7 1.3 0 0.4 0.2 1.3 0.5 2.1 0.4 1.1 -0.9 1.4 -6.1 1.4 -4.6 0 -6.8 -0.5 -7.1 -1.4z"/>

  <path fill="#8bc359" d="M183.8 16.8 c-1.1 -3.8 -1.7 -4.3 -4.3 -4.4 -1.6 -0.1 -3.6 0.3 -4.2 0.8 -0.9 0.7 -1.8 0.7 -2.7 -0.1 -0.8 -0.7 -2.7 -1.4 -4.3 -1.5 -1.5 -0.2 -3.2 -0.4 -3.6 -0.5 -0.5 0 -0.5 -0.5 -0.2 -1.1 0.8 -1.2 4.5 -1.3 4.5 -0.2 0 1.4 5.8 1.2 6.3 -0.2 0.3 -0.8 1.6 -1.2 2.9 -1 3.1 0.6 4.1 -0.3 6 -5.1 l1.6 -4 1.7 4.3 c0.9 2.3 2 4.2 2.4 4.2 1.3 0 0.6 3.5 -1.2 6 -0.9 1.4 -1.7 3.2 -1.7 4.2 0 3.5 -1.9 2.7 -3.2 -1.4z"/>
  <path fill="#8bc359" d="M57 10.5 c0 -1.3 0.5 -2.7 1.1 -3.1 1.7 -1 7.8 2.6 7.9 4.6 0 0.3 -2 0.6 -4.5 0.7 -4.1 0.2 -4.5 0 -4.5 -2.2z"/>
  <path fill="#8bc359" d="M69.5 11.1 c-0.3 -0.2 -0.5 -0.8 -0.5 -1.3 0 -1.3 3.7 -0.9 4.3 0.5 0.4 1.2 -2.8 1.9 -3.8 0.8z"/>
  <path fill="#8bc359" d="M78 10.5 c0 -0.9 0.9 -1.5 2.5 -1.5 1.6 0 2.5 0.6 2.5 1.5 0 0.9 -0.9 1.5 -2.5 1.5 -1.6 0 -2.5 -0.6 -2.5 -1.5z"/>

  <path fill="#64c24e" d="M96.6 13.4 c-0.3 -0.9 -1.3 -1.4 -2 -1.1 -2.2 0.9 -3.7 -1.5 -2 -3.1 0.8 -0.7 1.4 -0.9 1.4 -0.5 0.1 0.4 1 -0.3 2.1 -1.6 l2 -2.4 2.2 2.2 c1.3 1.1 3.1 2.1 4 2.1 0.9 0 1.7 0.5 1.7 1 0 0.6 -0.6 1 -1.4 1 -0.7 0 -2.5 0.9 -3.9 2 -3 2.4 -3.3 2.4 -4.1 0.4z"/>
  <path fill="#64c24e" d="M149 11.5 c-1.5 -1.8 -1.1 -2.4 1.8 -3 1.5 -0.3 1.9 0.1 1.5 1.6 -0.7 2.7 -1.9 3.1 -3.3 1.4z"/>
  <path fill="#64c24e" d="M137.5 11 c-1.8 -0.7 -1.8 -0.8 -0.3 -1.5 1.1 -0.4 2.4 -0.1 3.3 0.9 1.8 1.8 0.5 2.1 -3 0.6z"/>

  <path fill="#95cd5e" d="M172.8 12.9 c-2.4 -1.4 -2.3 -2.8 0.2 -2.2 1.1 0.3 2 1.2 2 1.9 0 1.6 0 1.6 -2.2 0.3z"/>
  <path fill="#95cd5e" d="M180.7 10.9 c-0.9 -1 -1.3 -1.9 -0.8 -1.9 0.5 0 1.7 -0.7 2.5 -1.6 1.5 -1.4 1.6 -1.3 1.6 1.5 0 3.8 -1.2 4.5 -3.3 2z"/>
  <path fill="#95cd5e" d="M70.7 10.3 c0.3 -0.7 0.9 -1.3 1.3 -1.3 0.4 0 1 0.6 1.3 1.3 0.3 0.7 -0.3 1.3 -1.3 1.3 -1 0 -1.6 -0.6 -1.3 -1.3z"/>
  <path fill="#95cd5e" d="M78 10.8 c0 -1.3 0.8 -1.8 2.5 -1.8 1.6 0 2.5 0.6 2.5 1.5 0 1.8 -1.6 2 -2.3 0.3 -0.4 -1 -0.8 -0.9 -1.6 0.2 -0.9 1.3 -1.1 1.3 -1.1 -0.2z"/>
 </g>
</svg>